Coordinates
version=1
nRows=26
nColumns=24
inDegrees=yes

Units are S.I. units (second, meters, Newtons, ...)
Angles are in degrees.

endheader
time	pelvis_tilt	pelvis_list	pelvis_rotation	pelvis_tx	pelvis_ty	pelvis_tz	hip_flexion_r	hip_adduction_r	hip_rotation_r	knee_angle_r	ankle_angle_r	subtalar_angle_r	mtp_angle_r	hip_flexion_l	hip_adduction_l	hip_rotation_l	knee_angle_l	ankle_angle_l	subtalar_angle_l	mtp_angle_l	lumbar_extension	lumbar_bending	lumbar_rotation
      6.04500000	     -4.76663240	     -3.42656690	      2.23507129	      1.86479235	      1.00845753	     -0.20787846	     22.26439801	      7.07070933	     -2.70450911	    -25.45012887	     19.86517307	     -1.22463535	      0.00000000	     11.98282061	     -7.64906551	    -10.16490065	    -63.75064021	    -20.02092992	     -6.33811734	      0.00000000	     -7.00369481	      6.39661037	     -3.68536521
      6.05000000	     -4.79429580	     -3.44736726	      2.17844989	      1.87095029	      1.00936131	     -0.20752693	     21.75401242	      7.18971989	     -2.47972609	    -25.13765103	     19.99969132	     -1.38653037	      0.00000000	     12.86702586	     -7.74849277	    -10.13204374	    -64.60568579	    -18.81922506	     -6.20373861	      0.00000000	     -7.03823744	      6.35850817	     -3.44183517
      6.05500000	     -4.82656922	     -3.45915454	      2.12901860	      1.87702793	      1.01030891	     -0.20716026	     21.23717867	      7.30444387	     -2.23053616	    -24.78673299	     20.02865217	     -1.64916774	      0.00000000	     13.75615539	     -7.83152697	    -10.09420170	    -65.39110919	    -17.57014646	     -6.05830923	      0.00000000	     -7.07901253	      6.30381405	     -3.19795220
      6.06000000	     -4.83323848	     -3.44560015	      2.03977789	      1.88314018	      1.01131917	     -0.20675353	     20.67497130	      7.40127654	     -1.94941164	    -24.41337454	     20.08603880	     -1.84573668	      0.00000000	     14.58632594	     -7.89881737	    -10.12417246	    -66.08547086	    -16.31209914	     -5.93158240	      0.00000000	     -7.14123481	      6.21807919	     -2.93235895
      6.06500000	     -4.82701906	     -3.41359169	      1.92625889	      1.88925232	      1.01237461	     -0.20633404	     20.08508773	      7.48260450	     -1.63830862	    -24.01785409	     20.13419169	     -2.01600241	      0.00000000	     15.37968224	     -7.94704700	    -10.18809668	    -66.69625655	    -15.06163730	     -5.82590691	      0.00000000	     -7.21826754	      6.11188515	     -2.65097380
      6.07000000	     -4.80707349	     -3.37693704	      1.80863428	      1.89535193	      1.01346095	     -0.20585967	     19.46769041	      7.56627283	     -1.30673795	    -23.59074841	     20.13424646	     -2.25670254	      0.00000000	     16.14622997	     -8.00285477	    -10.28565488	    -67.23374995	    -13.85263944	     -5.76733482	      0.00000000	     -7.30646179	      5.99222805	     -2.37598055
      6.07500000	     -4.78262091	     -3.32089532	      1.67708473	      1.90148540	      1.01455554	     -0.20537743	     18.82978776	      7.62860565	     -0.94835655	    -23.14420312	     20.16667000	     -2.45435386	      0.00000000	     16.88461967	     -8.03780995	    -10.40846250	    -67.69075036	    -12.69656896	     -5.75426719	      0.00000000	     -7.38952250	      5.85029647	     -2.11081372
      6.08000000	     -4.74755345	     -3.26114404	      1.53118996	      1.90758973	      1.01568261	     -0.20486923	     18.17528658	      7.69034894	     -0.57271252	    -22.67943228	     20.13019154	     -2.70478548	      0.00000000	     17.59290225	     -8.07203009	    -10.55843086	    -68.07046065	    -11.58270490	     -5.79616625	      0.00000000	     -7.48922404	      5.70133193	     -1.83576214
      6.08500000	     -4.70058941	     -3.19014422	      1.37935627	      1.91368886	      1.01683266	     -0.20435362	     17.50078729	      7.73840521	     -0.17996917	    -22.19989974	     20.07310938	     -2.96752006	      0.00000000	     18.26895816	     -8.09504765	    -10.72947677	    -68.37209504	    -10.53243930	     -5.89642792	      0.00000000	     -7.59848703	      5.53842038	     -1.56209299
      6.09000000	     -4.63264650	     -3.11301489	      1.21234704	      1.91979211	      1.01802393	     -0.20381855	     16.79783268	      7.78065451	      0.21739546	    -21.70468950	     19.96665832	     -3.26767660	      0.00000000	     18.89660718	     -8.11587947	    -10.93211124	    -68.58963371	     -9.53909427	     -6.06020300	      0.00000000	     -7.73049014	      5.36683099	     -1.28185757
      6.09500000	     -4.57271430	     -3.01331400	      1.05406571	      1.92589357	      1.01920071	     -0.20332780	     16.09745489	      7.78829017	      0.63397897	    -21.20362421	     19.87792203	     -3.54066518	      0.00000000	     19.51534500	     -8.10142164	    -11.13293323	    -68.73107574	     -8.60581900	     -6.25173886	      0.00000000	     -7.84607574	      5.17320241	     -1.02338338
      6.10000000	     -4.51281012	     -2.90531626	      0.89017249	      1.93197974	      1.02037206	     -0.20283036	     15.39392002	      7.78498163	      1.07069557	    -20.69309201	     19.76252832	     -3.84100305	      0.00000000	     20.11388366	     -8.07663315	    -11.34650806	    -68.79586832	     -7.72365772	     -6.47298566	      0.00000000	     -7.95951373	      4.96937417	     -0.76626522
      6.10500000	     -4.42302043	     -2.81151046	      0.72168071	      1.93806326	      1.02156570	     -0.20232804	     14.65094269	      7.79490091	      1.54028138	    -20.16624744	     19.62116115	     -4.16655857	      0.00000000	     20.66167330	     -8.06991904	    -11.57489762	    -68.78977316	     -6.89042150	     -6.72772997	      0.00000000	     -8.10666676	      4.78288155	     -0.50440634
      6.11000000	     -4.40169625	     -2.64568817	      0.58896812	      1.94407912	      1.02266905	     -0.20193026	     13.99638122	      7.70675606	      1.96982848	    -19.66430294	     19.50982177	     -4.46506133	      0.00000000	     21.26931050	     -7.95153568	    -11.76376746	    -68.70064966	     -6.09387989	     -6.94493081	      0.00000000	     -8.17353073	      4.51843717	     -0.30358603
      6.11500000	     -4.35910905	     -2.51515078	      0.40064801	      1.95011522	      1.02378185	     -0.20142014	     13.30760065	      7.67284231	      2.48986110	    -19.13826578	     19.31323487	     -4.85342720	      0.00000000	     21.82060527	     -7.90071273	    -12.01846465	    -68.54033362	     -5.32469368	     -7.17463600	      0.00000000	     -8.26058627	      4.28682139	     -0.04156084
      6.12000000	     -4.31763749	     -2.36825179	      0.23713911	      1.95612742	      1.02487951	     -0.20097656	     12.62446306	      7.60560597	      2.97179045	    -18.61370489	     19.11318371	     -5.23627937	      0.00000000	     22.35828045	     -7.81285420	    -12.24699345	    -68.30503550	     -4.58991420	     -7.38290747	      0.00000000	     -8.34724686	      4.04051564	      0.18861552
      6.12500000	     -4.21911796	     -2.26985549	      0.03018837	      1.96214893	      1.02601951	     -0.20043259	     11.86816363	      7.60084069	      3.52036173	    -18.06062159	     18.83375140	     -5.70287620	      0.00000000	     22.80773289	     -7.80549999	    -12.52735738	    -68.00704221	     -3.87692361	     -7.58331271	      0.00000000	     -8.50088063	      3.84267805	      0.48564134
      6.13000000	     -4.18710860	     -2.11089839	     -0.15179951	      1.96811361	      1.02707031	     -0.20000044	     11.19978404	      7.51064544	      4.02097910	    -17.53330376	     18.57698575	     -6.12681715	      0.00000000	     23.30972532	     -7.69808875	    -12.76948885	    -67.62392479	     -3.18873648	     -7.72624555	      0.00000000	     -8.57618591	      3.58354951	      0.73603403
      6.13500000	     -4.15362596	     -1.96123488	     -0.33554670	      1.97406254	      1.02807604	     -0.19956625	     10.52657734	      7.42567446	      4.54291363	    -16.99607878	     18.30772786	     -6.57500609	      0.00000000	     23.79224313	     -7.59653184	    -13.00700595	    -67.17677102	     -2.51081719	     -7.83063745	      0.00000000	     -8.65225051	      3.33435917	      0.98201838
      6.14000000	     -4.12960147	     -1.80799747	     -0.51455128	      1.97999157	      1.02902319	     -0.19915531	      9.86536606	      7.32758584	      5.04210092	    -16.45484750	     18.05071019	     -7.01766388	      0.00000000	     24.26787431	     -7.48128498	    -13.23178886	    -66.66457077	     -1.84816890	     -7.88534571	      0.00000000	     -8.71417466	      3.08031706	      1.23657825
      6.14500000	     -4.10021614	     -1.65971683	     -0.70955535	      1.98590048	      1.02996418	     -0.19876079	      9.20080168	      7.22734092	      5.56031128	    -15.91482664	     17.74607457	     -7.46288890	      0.00000000	     24.70726490	     -7.36522445	    -13.46168907	    -66.07188870	     -1.17172699	     -7.89715489	      0.00000000	     -8.78840341	      2.83929912	      1.46902712
      6.15000000	     -4.08671789	     -1.50718476	     -0.90121201	      1.99179570	      1.03083773	     -0.19839552	      8.55742891	      7.11113968	      6.03994621	    -15.37670690	     17.46238621	     -7.87878213	      0.00000000	     25.14417940	     -7.23376151	    -13.67658879	    -65.41213803	     -0.50737332	     -7.85198025	      0.00000000	     -8.84196095	      2.59340620	      1.71487214
      6.15500000	     -4.08016559	     -1.35831783	     -1.09587969	      1.99766895	      1.03166074	     -0.19805155	      7.92458120	      6.98904009	      6.49875355	    -14.83730384	     17.17899993	     -8.27326807	      0.00000000	     25.56579845	     -7.09851316	    -13.88441070	    -64.68248941	      0.15324911	     -7.75805167	      0.00000000	     -8.88735796	      2.35392497	      1.95873325
      6.16000000	     -4.07700993	     -1.21146055	     -1.29158584	      2.00352161	      1.03244283	     -0.19772892	      7.30141304	      6.85932875	      6.92265194	    -14.30139972	     16.89314449	     -8.64660893	      0.00000000	     25.96672817	     -6.95771718	    -14.08501641	    -63.88009538	      0.80995815	     -7.61870926	      0.00000000	     -8.93117704	      2.11885015	      2.19919573
      6.16500000	     -4.10041926	     -1.06807462	     -1.45935131	      2.00933963	      1.03312612	     -0.19749787	      6.71515609	      6.71545417	      7.28337541	    -13.77676666	     16.67231796	     -8.92743088	      0.00000000	     26.38414147	     -6.79221636	    -14.23486677	    -63.01445442	      1.45440707	     -7.44429245	      0.00000000	     -8.94438216	      1.89329384	      2.43107647
      6.17000000	     -4.09157631	     -0.93313844	     -1.69217290	      2.01516135	      1.03385227	     -0.19715275	      6.09527945	      6.58702262	      7.67791220	    -13.24356310	     16.34481548	     -9.29807853	      0.00000000	     26.71793409	     -6.67445525	    -14.46849865	    -62.06234252	      2.09791862	     -7.22153446	      0.00000000	     -9.00190674	      1.67146985	      2.69192292
